<?xml version="1.0" encoding="UTF-8" standalone="no"?>
<!-- Created with Inkscape (http://www.inkscape.org/) -->

<svg
   width="32.393635mm"
   height="29.16777mm"
   viewBox="0 0 32.393635 29.16777"
   version="1.1"
   id="svg19"
   xml:space="preserve"
   inkscape:export-filename="devs.svg"
   inkscape:export-xdpi="9.000001"
   inkscape:export-ydpi="9.000001"
   xmlns:inkscape="http://www.inkscape.org/namespaces/inkscape"
   xmlns:sodipodi="http://sodipodi.sourceforge.net/DTD/sodipodi-0.dtd"
   xmlns="http://www.w3.org/2000/svg"
   xmlns:svg="http://www.w3.org/2000/svg"><sodipodi:namedview
     id="namedview21"
     pagecolor="#505050"
     bordercolor="#eeeeee"
     borderopacity="1"
     inkscape:showpageshadow="0"
     inkscape:pageopacity="0"
     inkscape:pagecheckerboard="0"
     inkscape:deskcolor="#505050"
     inkscape:document-units="mm"
     showgrid="false" /><defs
     id="defs16"><inkscape:path-effect
       effect="spiro"
       id="path-effect1964"
       is_visible="true"
       lpeversion="1" /><inkscape:path-effect
       effect="spiro"
       id="path-effect1798"
       is_visible="true"
       lpeversion="1" /><inkscape:path-effect
       effect="spiro"
       id="path-effect1740"
       is_visible="true"
       lpeversion="1" /></defs><g
     inkscape:label="Layer 1"
     inkscape:groupmode="layer"
     id="layer1"
     transform="translate(-7.4714582,-11.207906)"><path
       style="opacity:1;fill:#999999;stroke-width:0.264583"
       d="m 7.4840729,15.780097 v -3.00069 c 0,0 0.3177201,-1.570949 1.5709492,-1.570949 1.2532289,0 29.4244089,0 29.4244089,0 0,0 1.385612,-0.0706 1.385612,1.385613 0,1.456217 0,25.779452 0,25.779452 0,0 0.02688,2.002155 -1.155944,2.002155 -1.182827,0 -29.7776347,0 -29.7776347,0 0,0 -1.460006,-0.77665 -1.460006,-1.460005 0,-0.683358 0.012615,-23.135576 0.012615,-23.135576 z"
       id="path1406" /><rect
       style="opacity:1;fill:#ececec;stroke-width:0.264583"
       id="rect1524"
       width="27.818159"
       height="20.263479"
       x="9.8140202"
       y="18.004137" /><path
       style="opacity:1;fill:#ff2a2a;stroke-width:0.264583"
       d="m 28.806621,14.756332 c 0.0038,-0.277776 0.122234,-0.552245 0.321643,-0.745664 0.199408,-0.193418 0.477359,-0.303387 0.755124,-0.298758 0.277764,0.0046 0.551896,0.123799 0.744749,0.323754 0.192852,0.199956 0.302033,0.478218 0.296617,0.755968 -0.0048,0.244266 -0.09723,0.485909 -0.256754,0.670954 -0.159522,0.185044 -0.384903,0.312109 -0.625801,0.35281 -0.30497,0.05153 -0.630959,-0.03891 -0.865791,-0.240197 -0.234833,-0.201285 -0.374065,-0.509607 -0.369787,-0.81887 z"
       id="path1738"
       inkscape:path-effect="#path-effect1740"
       inkscape:original-d="m 28.806621,14.756332 c 0.718077,0.01203 1.412354,0.0238 2.118133,0.0353 0.705781,0.0115 -0.588106,0.682774 -0.882555,1.023764 -0.29445,0.34099 -0.823455,-0.70578 -1.235578,-1.059067 z" /><path
       style="opacity:1;fill:#ffd42a;stroke-width:0.264583"
       d="m 32.160331,14.650426 c 0.02596,-0.262438 0.153747,-0.513483 0.350658,-0.688908 0.19691,-0.175426 0.460986,-0.273485 0.724669,-0.269091 0.263683,0.0044 0.524345,0.111199 0.715301,0.293089 0.190956,0.181889 0.310302,0.437052 0.327507,0.70021 0.01812,0.277189 -0.07777,0.56013 -0.260693,0.769181 -0.18292,0.209052 -0.450627,0.341657 -0.727769,0.36049 -0.307014,0.02086 -0.620806,-0.09957 -0.835026,-0.320484 -0.214219,-0.220914 -0.324944,-0.538262 -0.294647,-0.844489 z"
       id="path1796"
       inkscape:path-effect="#path-effect1798"
       inkscape:original-d="m 32.160331,14.650426 c -0.376822,-0.388589 1.412354,0.0238 2.118135,0.0353 0.705779,0.0115 -0.658712,0.753379 -0.988462,1.129671 -0.329753,0.376293 -0.75285,-0.776384 -1.129673,-1.164973 z" /><path
       style="opacity:1;fill:#5fd38d;stroke-width:0.264583"
       d="m 35.514044,14.685728 c 0.02564,-0.248741 0.147562,-0.486315 0.334688,-0.652187 0.187126,-0.165872 0.437612,-0.258404 0.687633,-0.254018 0.250021,0.0044 0.497107,0.105647 0.6783,0.27798 0.181193,0.172334 0.294703,0.414037 0.311607,0.663525 0.01642,0.242412 -0.0583,0.489926 -0.206134,0.682747 -0.14783,0.19282 -0.367456,0.329247 -0.60582,0.37632 -0.308552,0.06093 -0.643704,-0.0326 -0.876113,-0.244501 -0.23241,-0.211903 -0.356416,-0.537015 -0.324161,-0.849868 z"
       id="path1962"
       inkscape:path-effect="#path-effect1964"
       inkscape:original-d="m 35.514044,14.685728 c -0.400357,-0.365054 1.34175,0.0238 2.012228,0.0353 0.670478,0.0115 -0.541036,0.706309 -0.811954,1.059067 -0.270914,0.352758 -0.799917,-0.729315 -1.200274,-1.094369 z" /><path
       style="opacity:1;fill:#666666;stroke-width:0.264583"
       d="m 20.934223,32.160331 0.63544,0.847254 0.706044,0.0706 0.741347,-0.670742 3.45962,-10.696575 -0.14121,-0.917858 -0.600138,-0.494231 -0.811951,0.105906 -0.388325,0.458929 z"
       id="path2032" /><path
       style="opacity:1;fill:#666666;stroke-width:0.264583"
       d="m 27.571041,30.21871 5.68366,-2.718273 0.353023,-0.741347 -0.31772,-0.811951 -5.789567,-2.647667 -0.564835,0.0706 -0.494231,0.529534 -0.0353,0.670742 0.388326,0.529534 3.424316,1.623903 -3.600828,1.76511 -0.211814,0.706046 0.247115,0.670742 0.423627,0.282417 z"
       id="path2034" /><path
       style="opacity:1;fill:#666666;stroke-width:0.264583"
       d="m 17.333395,26.794394 3.671432,1.835716 0.141209,0.600136 -0.388325,0.670742 -0.600137,0.388326 -0.882556,-0.317719 -5.22473,-2.435855 -0.211814,-0.706046 0.211814,-0.564835 0.741347,-0.670742 4.90701,-2.224041 0.811951,-0.0353 0.529533,0.423627 -0.0353,0.95316 -0.458929,0.529534 z"
       id="path2036" /></g></svg>
