<?xml version="1.0" encoding="UTF-8" standalone="no"?>
<!-- Created with Inkscape (http://www.inkscape.org/) -->

<svg
   width="35.556679mm"
   height="25.400002mm"
   viewBox="0 0 35.556679 25.400002"
   version="1.1"
   id="svg5"
   xml:space="preserve"
   xmlns:inkscape="http://www.inkscape.org/namespaces/inkscape"
   xmlns:sodipodi="http://sodipodi.sourceforge.net/DTD/sodipodi-0.dtd"
   xmlns="http://www.w3.org/2000/svg"
   xmlns:svg="http://www.w3.org/2000/svg"><sodipodi:namedview
     id="namedview7"
     pagecolor="#505050"
     bordercolor="#eeeeee"
     borderopacity="1"
     inkscape:showpageshadow="0"
     inkscape:pageopacity="0"
     inkscape:pagecheckerboard="0"
     inkscape:deskcolor="#505050"
     inkscape:document-units="mm"
     showgrid="false"
     showguides="true"><sodipodi:guide
       position="35.22917,-1.2537335"
       orientation="0,-1"
       id="guide344"
       inkscape:locked="false" /><sodipodi:guide
       position="16.305037,33.713356"
       orientation="0,-1"
       id="guide346"
       inkscape:locked="false" /></sodipodi:namedview><defs
     id="defs2"><inkscape:path-effect
       effect="spiro"
       id="path-effect1775"
       is_visible="true"
       lpeversion="1" /><inkscape:path-effect
       effect="spiro"
       id="path-effect1771"
       is_visible="true"
       lpeversion="1" /><inkscape:path-effect
       effect="spiro"
       id="path-effect1493"
       is_visible="true"
       lpeversion="1" /><inkscape:path-effect
       effect="spiro"
       id="path-effect1327"
       is_visible="true"
       lpeversion="1" /><inkscape:path-effect
       effect="spiro"
       id="path-effect725"
       is_visible="true"
       lpeversion="1" /><inkscape:path-effect
       effect="spiro"
       id="path-effect721"
       is_visible="true"
       lpeversion="1" /></defs><g
     inkscape:label="Layer 1"
     inkscape:groupmode="layer"
     id="layer1"
     transform="translate(-6.2860543,-13.355415)"><path
       style="fill:#333333;stroke-width:0.264583"
       d="m 18.203836,14.929765 11.328286,0.06548 -2.422811,11.45925 -7.006513,0.06548 z"
       id="path733" /><path
       style="fill:#1a1a1a;stroke-width:0.264583"
       d="m 6.2862168,21.412426 c 0.00756,-1.174298 0.2779966,-2.346171 0.7857773,-3.405034 0.948341,-1.977553 2.7464045,-3.529606 4.8412779,-4.178894 2.094873,-0.649288 4.455525,-0.386195 6.356046,0.708378 1.211163,0.697549 2.233792,1.718963 2.932781,2.929296 0.698988,1.210333 1.072594,2.606569 1.071458,4.004242 -0.0011,1.397673 -0.377011,2.7933 -1.077966,4.002495 -0.700955,1.209195 -1.725243,2.228946 -2.937538,2.924525 -1.212295,0.695579 -2.609578,1.065255 -4.007242,1.060185 -1.397664,-0.0051 -2.792228,-0.384871 -3.999445,-1.089226 C 9.0441484,27.664038 8.0272843,26.636883 7.3351197,25.422636 6.6429551,24.208388 6.2772138,22.81007 6.2862168,21.412426 Z"
       id="path719"
       inkscape:path-effect="#path-effect721"
       inkscape:original-d="m 6.2862168,21.412426 c 0.2621905,-1.134747 0.524116,-2.269758 0.7857773,-3.405034 0.261661,-1.135276 7.4651469,-2.313412 11.1973239,-3.470516 3.732177,-1.157103 -7.988469,4.583965 -11.9831012,6.87555 z" /><path
       style="fill:#1a1a1a;stroke-width:0.264583"
       d="m 29.204716,14.733321 c 1.280007,-0.840431 2.791082,-1.333567 4.321773,-1.37511 2.177491,-0.0591 4.36091,0.821363 5.902554,2.360289 1.541644,1.538926 2.424691,3.712106 2.413588,5.890371 -0.0093,1.83215 -0.641406,3.655653 -1.768509,5.100126 -1.127102,1.444473 -2.74244,2.501005 -4.517708,2.954088 -1.520466,0.388052 -3.151911,0.335291 -4.64148,-0.158249 -1.48957,-0.493541 -2.831563,-1.427165 -3.805623,-2.657452 -1.430478,-1.806766 -2.025142,-4.241514 -1.621421,-6.510363 0.403721,-2.26885 1.790457,-4.338879 3.716826,-5.6037 z"
       id="path723"
       inkscape:path-effect="#path-effect725"
       inkscape:original-d="m 29.204716,14.733321 c 0.698204,-4.038286 2.881447,-0.916476 4.321773,-1.37511 1.440328,-0.458635 5.544359,5.500704 8.316142,8.25066 2.771783,2.749955 -4.190547,5.369741 -6.286217,8.054214 -2.095669,2.684476 -5.631137,-1.876869 -8.447103,-2.815701 -2.815967,-0.938831 1.397201,-8.075777 2.095405,-12.114063 z" /><path
       style="fill:#cccccc;stroke-width:0.264583"
       d="m 13.099894,22.760492 h -2.384578 c 0,0 -0.45093,0.09172 -0.45093,-0.45093 0,-0.542644 0,-1.398646 0,-1.398646 0,0 -0.04586,-0.31718 0.317179,-0.31718 0.363037,0 2.457186,0 2.457186,0 0,0 0.269411,0.07643 0.269411,-0.269411 0,-0.345841 0,-2.378846 0,-2.378846 0,0 -0.04586,-0.316224 0.316224,-0.316224 0.362082,0 1.44737,0 1.44737,0 0,0 0.318613,-0.04586 0.318613,0.318612 0,0.36447 0,2.443333 0,2.443333 0,0 -0.06114,0.245766 0.245766,0.245766 0.30691,0 2.492773,0 2.492773,0 0,0 0.259261,-0.03057 0.259261,0.259261 0,0.289832 0,1.604407 0,1.604407 0,0 0.06114,0.20606 -0.206059,0.20606 -0.267203,0 -2.514209,0 -2.514209,0 0,0 -0.17608,-0.0247 -0.17608,0.304978 0,0.329679 0,2.423828 0,2.423828 0,0 0.03057,0.332318 -0.332318,0.332318 -0.36289,0 -1.601037,0 -1.601037,0 0,0 -0.225922,0.05413 -0.225922,-0.391308 0,-0.44544 0,-2.616018 0,-2.616018 z"
       id="path1009" /><path
       style="fill:#ff5555;stroke-width:0.274481"
       d="m 28.716001,21.5149 c 0.03569,-0.349477 0.203171,-0.683521 0.460293,-0.922887 0.257122,-0.239366 0.601404,-0.382405 0.95235,-0.398041 0.385646,-0.01718 0.776504,0.12077 1.06411,0.378259 0.287606,0.257489 0.468023,0.6319 0.48748,1.017438 0.02011,0.398546 -0.132634,0.802347 -0.40952,1.089709 -0.276886,0.287363 -0.673544,0.454806 -1.072596,0.455529 -0.412471,7.47e-4 -0.822767,-0.1772 -1.101912,-0.480863 C 28.81706,22.350382 28.674102,21.925238 28.716001,21.5149 Z"
       id="path1325"
       inkscape:path-effect="#path-effect1327"
       inkscape:original-d="m 28.716001,21.5149 c -0.494302,-0.540287 0.942026,-0.880334 1.412643,-1.320928 0.470614,-0.440595 1.034658,0.93075 1.55159,1.395697 0.516933,0.464948 -0.987814,1.030444 -1.482116,1.545238 -0.494305,0.514795 -0.987814,-1.079719 -1.482117,-1.620007 z" /><path
       style="fill:#d38d5f;stroke-width:0.264583"
       d="m 32.073921,24.964394 c 0.01778,-0.394366 0.197917,-0.778973 0.489491,-1.045104 0.291574,-0.266131 0.690984,-0.410501 1.085332,-0.3923 0.394347,0.0182 0.778761,0.198747 1.044582,0.490604 0.26582,0.291857 0.409764,0.691421 0.391143,1.085749 -0.01805,0.382235 -0.18824,0.755194 -0.465137,1.019311 -0.276898,0.264117 -0.657477,0.416507 -1.040138,0.416488 -0.405803,-2e-5 -0.808804,-0.17231 -1.089206,-0.465654 -0.280402,-0.293343 -0.434345,-0.703703 -0.416067,-1.109094 z"
       id="path1491"
       inkscape:path-effect="#path-effect1493"
       inkscape:original-d="m 32.073921,24.964394 c -0.502023,-0.52518 2.007296,0.0929 3.010548,0.138949 1.003253,0.04605 -1.003252,0.957464 -1.505275,1.435799 -0.502023,0.478335 -1.00325,-1.049567 -1.505273,-1.574748 z" /><path
       style="fill:#6f917c;stroke-width:0.264583"
       d="m 35.524471,21.699107 c -0.01393,-0.37956 0.134253,-0.762403 0.400101,-1.033667 0.265849,-0.271265 0.645626,-0.427142 1.02539,-0.420864 0.379763,0.0063 0.754181,0.174621 1.010919,0.454524 0.256737,0.279903 0.39219,0.667435 0.365718,1.046327 -0.02651,0.379476 -0.215053,0.744884 -0.50876,0.98663 -0.293707,0.241746 -0.688414,0.356505 -1.065989,0.310222 -0.309345,-0.03792 -0.604692,-0.181933 -0.825069,-0.40231 -0.220377,-0.220377 -0.36439,-0.515723 -0.40231,-0.825068"
       id="path1769"
       inkscape:path-effect="#path-effect1771"
       inkscape:original-d="m 35.524471,21.699107 c -2.64e-4,-0.03886 1.86835,0.03114 2.802128,0.04632 0.933776,0.01517 -1.049567,0.864833 -1.574749,1.296852 -0.52518,0.432019 -0.817986,-0.817987 -1.227379,-1.227378" /><path
       style="fill:#3771c8;stroke-width:0.264583"
       d="m 32.189711,18.387504 c -0.04145,-0.374215 0.07528,-0.763402 0.315838,-1.053032 0.240562,-0.28963 0.601716,-0.475801 0.977183,-0.503729 0.375467,-0.02793 0.76019,0.102766 1.040954,0.353619 0.280763,0.250854 0.453785,0.618489 0.46815,0.994719 0.01414,0.370305 -0.12539,0.74413 -0.378698,1.014612 -0.253308,0.270482 -0.617191,0.434198 -0.987626,0.444346 -0.348487,0.0095 -0.698947,-0.116231 -0.961833,-0.345196 -0.262887,-0.228965 -0.435585,-0.558841 -0.473968,-0.905339 z"
       id="path1773"
       inkscape:path-effect="#path-effect1775"
       inkscape:original-d="m 32.189711,18.387504 c -0.478864,-0.41711 1.86835,-0.138684 2.802125,-0.208423 0.933778,-0.06974 -0.910619,0.972903 -1.366324,1.458958 -0.455708,0.486055 -0.956937,-0.833425 -1.435801,-1.250535 z" /></g></svg>
