<?xml version="1.0" encoding="UTF-8" standalone="no"?>
<!-- Created with Inkscape (http://www.inkscape.org/) -->

<svg
   width="48"
   height="48"
   viewBox="0 0 12.7 12.7"
   version="1.1"
   id="svg5"
   inkscape:export-filename="a.svg"
   inkscape:export-xdpi="96"
   inkscape:export-ydpi="96"
   xmlns:inkscape="http://www.inkscape.org/namespaces/inkscape"
   xmlns:sodipodi="http://sodipodi.sourceforge.net/DTD/sodipodi-0.dtd"
   xmlns="http://www.w3.org/2000/svg"
   xmlns:svg="http://www.w3.org/2000/svg">
  <sodipodi:namedview
     id="namedview7"
     pagecolor="#505050"
     bordercolor="#eeeeee"
     borderopacity="1"
     inkscape:showpageshadow="0"
     inkscape:pageopacity="0"
     inkscape:pagecheckerboard="0"
     inkscape:deskcolor="#505050"
     inkscape:document-units="mm"
     showgrid="false"
     showguides="true" />
  <defs
     id="defs2">
    <inkscape:path-effect
       effect="spiro"
       id="path-effect1795"
       is_visible="true"
       lpeversion="1" />
    <inkscape:path-effect
       effect="spiro"
       id="path-effect1581"
       is_visible="true"
       lpeversion="1" />
    <inkscape:path-effect
       effect="spiro"
       id="path-effect1399"
       is_visible="true"
       lpeversion="1" />
    <inkscape:path-effect
       effect="spiro"
       id="path-effect1070"
       is_visible="true"
       lpeversion="1" />
    <inkscape:path-effect
       effect="spiro"
       id="path-effect1066"
       is_visible="true"
       lpeversion="1" />
    <inkscape:path-effect
       effect="spiro"
       id="path-effect1399-3"
       is_visible="true"
       lpeversion="1" />
    <inkscape:path-effect
       effect="spiro"
       id="path-effect1581-0"
       is_visible="true"
       lpeversion="1" />
  </defs>
  <g
     inkscape:label="Layer 1"
     inkscape:groupmode="layer"
     id="layer1">
    <path
       style="fill:#ffccaa;stroke-width:0.264583"
       d="M 5.3602288,6.1599404 C 5.0902404,6.4452011 4.9628771,6.8409879 4.9266643,7.2320839 c -0.036213,0.3910959 0.010418,0.7844082 0.044516,1.1756943 0.033198,0.3809673 0.054789,0.7646707 0.1377111,1.1379832 0.082922,0.3733125 0.2318064,0.7404786 0.4890897,1.0233986 0.2771769,0.304795 0.6786891,0.497129 1.0905652,0.506369 0.4118761,0.0092 0.8273698,-0.169371 1.0924311,-0.484759 C 8.0315171,10.29266 8.1386058,9.8960134 8.1600877,9.5071968 8.1815696,9.1183803 8.1247664,8.730157 8.0835708,8.3429327 8.0448004,7.9785045 8.0195587,7.6112871 7.9391827,7.2537249 7.8588067,6.8961627 7.7192746,6.5442025 7.4783838,6.2680094 7.2167827,5.9680709 6.8364951,5.7706355 6.4393203,5.7451313 6.0421456,5.7196271 5.6338081,5.8708857 5.3602288,6.1599404 Z"
       id="path1068"
       inkscape:path-effect="#path-effect1070"
       inkscape:original-d="M 5.3602288,6.1599404 C 4.6539125,6.1236528 5.1011274,7.6587634 4.97118,8.4077782 4.8412325,9.1567932 5.3893118,9.8489643 5.5979808,10.56916 5.80665,11.289357 7.0535764,10.58383 7.7809771,10.59077 8.5083781,10.59767 7.9829709,9.0924762 8.0835708,8.3429327 8.1841706,7.5933928 7.6803773,6.9599165 7.4783838,6.2680094 7.27639,5.5761023 6.0665449,6.196228 5.3602288,6.1599404 Z"
       inkscape:label="stem" />
    <path
       style="fill:#ff8080;stroke-width:0.264583"
       d="m 2.0749272,7.305473 c 2.6528639,-0.2804652 5.3327161,0.1316123 7.9971158,0 0.248499,-0.012275 0.498193,-0.02949 0.740115,-0.087593 0.241923,-0.058103 0.477511,-0.1592662 0.664783,-0.3230701 0.166363,-0.1455158 0.289928,-0.3370909 0.365919,-0.5446408 0.07599,-0.20755 0.105357,-0.4307209 0.09851,-0.6516388 C 11.927664,5.2566949 11.772248,4.8312694 11.58501,4.4308342 11.131289,3.4604901 10.472676,2.5792838 9.6323638,1.914976 8.7920512,1.2506682 7.7671552,0.80927862 6.700286,0.71325625 5.2371975,0.5815726 3.7377,1.1199728 2.6534048,2.1110693 1.5691096,3.1021659 0.90331103,4.5233733 0.77809772,5.9870297 c -0.0194953,0.2278863 -0.0261476,0.460556 0.0303894,0.6821768 0.0282685,0.1108105 0.072423,0.2180814 0.13573177,0.3133183 0.0633087,0.095237 0.14612303,0.1782533 0.24454153,0.236493 0.1300885,0.076981 0.282954,0.1084382 0.4339929,0.1144609 0.151039,0.00602 0.3018527,-0.012113 0.4521739,-0.028006 z"
       id="path1064"
       inkscape:label="base"
       inkscape:original-d="m 2.0749272,7.305473 c 0.2951244,0.028554 5.3316749,2.646e-4 7.9971158,0 2.66544,-2.646e-4 0.936863,-0.2735106 1.404898,-0.4106627 0.468035,-0.137152 0.07231,-1.6423862 0.108069,-2.4639761 C 11.620769,3.6092442 8.3287919,1.9527135 6.700286,0.71325625 5.0717799,-0.526201 2.7524249,4.2293698 0.77809772,5.9870297 -1.1962296,7.7446896 1.0521374,6.8086197 1.1887604,7.2190178 c 0.136623,0.4103981 0.5910425,0.057901 0.8861668,0.086455 z"
       inkscape:path-effect="#path-effect1066" />
    <path
       style="fill:#ffffff;stroke-width:0.264583"
       d="M 4.0633992,3.0907771 C 3.7436947,2.9351687 3.3619007,2.912129 3.0258038,3.0281625 2.6897069,3.144196 2.4034462,3.3978736 2.2478378,3.7175781 2.0922295,4.0372825 2.0691898,4.4190765 2.1852233,4.7551735 2.3012567,5.0912704 2.5549343,5.377531 2.8746388,5.5331394 3.1943433,5.6887478 3.5761373,5.7117875 3.9122342,5.595754 4.2483311,5.4797205 4.5345918,5.2260429 4.6902002,4.9063384 4.8458085,4.586634 4.8688482,4.20484 4.7528147,3.868743 4.6367813,3.5326461 4.3831037,3.2463855 4.0633992,3.0907771 Z"
       id="path1397"
       inkscape:original-d="M 4.0633992,3.0907771 C 3.6674104,3.9051624 3.2711569,4.7192832 2.8746388,5.5331394 2.4781208,6.3469956 3.6674104,3.9051624 4.0633992,3.0907771 Z"
       inkscape:path-effect="#path-effect1399" />
    <path
       style="fill:#241c1c;stroke-width:0.408953"
       d="M 2.918393,4.6699906 C 2.9223517,4.44615 3.0204697,4.2254671 3.1840093,4.0725779 3.347549,3.9196887 3.5743299,3.8366315 3.7979301,3.8477329 4.0363579,3.8595705 4.2673962,3.9789304 4.4150184,4.1665354 4.5626405,4.3541404 4.6243127,4.6067707 4.5797409,4.8412942 4.5409921,5.0451788 4.4234118,5.2330368 4.2569642,5.3569948 4.0905166,5.4809528 3.8768474,5.5397851 3.6704079,5.5184988 3.4639684,5.4972126 3.2667997,5.3960183 3.1291482,5.2407043 2.9914966,5.0853903 2.9147233,4.8774922 2.918393,4.6699906 Z"
       id="path1579"
       inkscape:path-effect="#path-effect1581"
       inkscape:original-d="M 2.918393,4.6699906 C 2.3642113,4.61247 3.5051499,4.122238 3.7979301,3.8477329 4.0907102,3.5732277 4.3195362,4.5105265 4.5797409,4.8412942 4.839946,5.1720622 3.4725744,4.7275111 2.918393,4.6699906 Z" />
    <path
       style="display:inline;fill:#ffffff;stroke-width:0.264583"
       d="M 9.5641179,2.8422181 C 9.2444134,2.6866097 8.8626194,2.66357 8.5265225,2.7796035 8.1904256,2.895637 7.9041649,3.1493146 7.7485565,3.4690191 7.5929482,3.7887235 7.5699085,4.1705175 7.685942,4.5066145 7.8019754,4.8427114 8.055653,5.128972 8.3753575,5.2845804 8.695062,5.4401888 9.076856,5.4632285 9.4129529,5.347195 9.7490498,5.2311615 10.03531,4.9774839 10.190919,4.6577794 10.346527,4.338075 10.369567,3.956281 10.253533,3.620184 10.1375,3.2840871 9.8838224,2.9978265 9.5641179,2.8422181 Z"
       id="path1397-9"
       inkscape:path-effect="#path-effect1399-3"
       inkscape:original-d="M 9.5641179,2.8422181 C 9.1681291,3.6566034 8.7718756,4.4707242 8.3753575,5.2845804 7.9788395,6.0984366 9.1681291,3.6566034 9.5641179,2.8422181 Z" />
    <path
       style="fill:#241c1c;stroke-width:0.408953"
       d="M 8.4191117,4.4214316 C 8.4230704,4.197591 8.5211885,3.9769081 8.6847281,3.824019 8.8482677,3.6711298 9.0750486,3.5880726 9.2986488,3.5991739 9.5370766,3.6110114 9.768115,3.7303713 9.9157373,3.9179763 10.063359,4.1055813 10.125032,4.3582116 10.08046,4.5927352 10.041711,4.7966199 9.924131,4.984478 9.7576833,5.1084361 9.5912357,5.2323941 9.3775664,5.2912264 9.1711268,5.2699402 8.9646872,5.248654 8.7675184,5.1474597 8.6298668,4.9921456 8.4922153,4.8368315 8.4154419,4.6289333 8.4191117,4.4214316 Z"
       id="path1579-9"
       inkscape:path-effect="#path-effect1581-0"
       inkscape:original-d="M 8.4191117,4.4214316 C 7.86493,4.363911 9.0058686,3.873679 9.2986488,3.5991739 9.5914289,3.3246687 9.8202549,4.2619675 10.08046,4.5927352 10.340665,4.9235032 8.9732931,4.4789521 8.4191117,4.4214316 Z" />
    <path
       style="fill:#ffffff;stroke-width:0.264583"
       d="m 5.079249,5.7925054 c 0.088433,-0.062816 0.2004019,-0.086396 0.3088029,-0.082458 0.1084009,0.00394 0.2142523,0.033629 0.3166526,0.069412 0.1024004,0.035783 0.2026887,0.077883 0.3068766,0.1080686 0.1041878,0.030185 0.2136606,0.048317 0.3212699,0.034661 0.1671166,-0.021208 0.3140452,-0.1158937 0.4652252,-0.1902063 0.07559,-0.037156 0.1541789,-0.06984 0.2369157,-0.085622 0.082737,-0.015782 0.1703093,-0.01392 0.2488673,0.016462 0.06514,0.025193 0.1224063,0.069582 0.1648261,0.1250657 0.04242,0.055484 0.070099,0.1218076 0.081916,0.1906427 0.023633,0.1376701 -0.016963,0.2819967 -0.095445,0.397548 C 7.3609358,6.4853547 7.2544674,6.57075 7.136151,6.6294959 7.0178345,6.6882418 6.887861,6.7211682 6.756716,6.7370066 6.494426,6.7686834 6.2293652,6.7333133 5.9654159,6.7218998 5.7945781,6.7145125 5.6221368,6.7170564 5.4544998,6.6833226 5.2868628,6.6495887 5.1206851,6.5748798 5.0144076,6.44092 4.9388656,6.3457015 4.8977206,6.2223518 4.9076363,6.1012121 4.9175521,5.9800724 4.9801581,5.8628912 5.079249,5.7925054 Z"
       id="path1793"
       inkscape:path-effect="#path-effect1795"
       inkscape:original-d="m 5.079249,5.7925054 c 0.021349,-0.216403 0.8359992,0.08672 1.253602,0.1296829 0.4176027,0.042963 0.63427,-0.1726462 0.9510082,-0.2593661 0.3167383,-0.08672 0.1011291,0.4757688 0.1512967,0.7132564 0.050168,0.2374873 -0.9795621,0.2308119 -1.46974,0.3458212 C 5.475238,6.8369089 5.3316748,6.5348444 5.0144076,6.44092 4.6971402,6.3469956 5.0578998,6.0089081 5.079249,5.7925054 Z" />
    <path
       style="fill:#ffffff;stroke-width:0.264583"
       d="m 2.4889975,2.2677919 c 0,0 0.6015948,-0.5898633 1.1147113,-0.8505471 C 4.1168251,1.156561 3.7367056,2.9952381 2.4889975,2.2677919 Z"
       id="path2646" />
    <ellipse
       style="fill:#ffffff;stroke-width:0.437069"
       id="path2648"
       cx="10.574027"
       cy="6.0531702"
       rx="1.0236821"
       ry="1.0025985" />
  </g>
</svg>
