<?xml version="1.0" encoding="UTF-8" standalone="no"?>
<!-- Created with Inkscape (http://www.inkscape.org/) -->

<svg
   width="96"
   height="48"
   viewBox="0 0 25.4 12.7"
   version="1.1"
   id="svg5"
   inkscape:export-filename="Title.svg"
   inkscape:export-xdpi="96"
   inkscape:export-ydpi="96"
   sodipodi:docname="Title.svg"
   inkscape:version="1.2.2 (732a01da63, 2022-12-09)"
   xmlns:inkscape="http://www.inkscape.org/namespaces/inkscape"
   xmlns:sodipodi="http://sodipodi.sourceforge.net/DTD/sodipodi-0.dtd"
   xmlns="http://www.w3.org/2000/svg"
   xmlns:svg="http://www.w3.org/2000/svg">
  <sodipodi:namedview
     id="namedview7"
     pagecolor="#505050"
     bordercolor="#eeeeee"
     borderopacity="1"
     inkscape:showpageshadow="0"
     inkscape:pageopacity="0"
     inkscape:pagecheckerboard="0"
     inkscape:deskcolor="#505050"
     inkscape:document-units="mm"
     showgrid="false"
     inkscape:zoom="22.627417"
     inkscape:cx="59.485358"
     inkscape:cy="23.599689"
     inkscape:window-width="1920"
     inkscape:window-height="991"
     inkscape:window-x="-9"
     inkscape:window-y="-9"
     inkscape:window-maximized="1"
     inkscape:current-layer="layer1" />
  <defs
     id="defs2">
    <inkscape:path-effect
       effect="spiro"
       id="path-effect1340"
       is_visible="true"
       lpeversion="1" />
    <inkscape:path-effect
       effect="spiro"
       id="path-effect1232"
       is_visible="true"
       lpeversion="1" />
    <inkscape:path-effect
       effect="spiro"
       id="path-effect1204"
       is_visible="true"
       lpeversion="1" />
    <inkscape:path-effect
       effect="spiro"
       id="path-effect1200"
       is_visible="true"
       lpeversion="1" />
    <inkscape:path-effect
       effect="spiro"
       id="path-effect1035"
       is_visible="true"
       lpeversion="1" />
    <inkscape:path-effect
       effect="spiro"
       id="path-effect1031"
       is_visible="true"
       lpeversion="1" />
    <inkscape:path-effect
       effect="spiro"
       id="path-effect757"
       is_visible="true"
       lpeversion="1" />
    <inkscape:path-effect
       effect="spiro"
       id="path-effect558"
       is_visible="true"
       lpeversion="1" />
    <inkscape:path-effect
       effect="spiro"
       id="path-effect554"
       is_visible="true"
       lpeversion="1" />
    <inkscape:path-effect
       effect="spiro"
       id="path-effect550"
       is_visible="true"
       lpeversion="1" />
    <inkscape:path-effect
       effect="spiro"
       id="path-effect546"
       is_visible="true"
       lpeversion="1" />
    <inkscape:path-effect
       effect="spiro"
       id="path-effect228"
       is_visible="true"
       lpeversion="1" />
    <inkscape:path-effect
       effect="spiro"
       id="path-effect216"
       is_visible="true"
       lpeversion="1" />
    <inkscape:path-effect
       effect="spiro"
       id="path-effect192"
       is_visible="true"
       lpeversion="1" />
    <inkscape:path-effect
       effect="spiro"
       id="path-effect188"
       is_visible="true"
       lpeversion="1" />
    <inkscape:path-effect
       effect="spiro"
       id="path-effect184"
       is_visible="true"
       lpeversion="1" />
    <inkscape:path-effect
       effect="spiro"
       id="path-effect176"
       is_visible="true"
       lpeversion="1" />
  </defs>
  <g
     inkscape:label="Layer 1"
     inkscape:groupmode="layer"
     id="layer1">
    <path
       style="fill:#ffffff;stroke-width:0.264583"
       d="M 0.66934383,3.8364829 C 0.57924857,3.7482365 0.52623039,3.6267996 0.50561425,3.5023827 0.48499812,3.3779658 0.49495514,3.250214 0.51721368,3.1260804 0.56173075,2.8778132 0.65530343,2.6357335 0.65301838,2.3835171 0.6505417,2.1101492 0.53581119,1.8515083 0.48456239,1.5829758 0.45893798,1.4487096 0.44934875,1.3093887 0.47783783,1.175701 0.50632691,1.0420133 0.57576731,0.91387318 0.68566931,0.83259844 0.7686708,0.77121717 0.87161531,0.73896128 0.97478219,0.73528646 1.0779491,0.73161164 1.1811935,0.75574052 1.2751004,0.79861709 1.4629142,0.88437022 1.6094737,1.04081 1.7304987,1.208084 c 0.1096447,0.1515449 0.2032526,0.3157786 0.330734,0.4526593 0.063741,0.06844 0.1359846,0.129759 0.2179566,0.1747872 0.081972,0.045028 0.1740645,0.073384 0.2675824,0.074548 0.094714,0.00118 0.1887524,-0.025613 0.2721247,-0.070572 C 2.9022687,1.7945492 2.9752981,1.7318528 3.0378231,1.6606994 3.1628731,1.5183925 3.2453737,1.3447268 3.3303937,1.1754331 3.4108029,1.0153206 3.4970718,0.85400987 3.6265711,0.73018908 3.6913208,0.66827869 3.7666,0.61652867 3.8501569,0.58422296 3.9337138,0.55191726 4.0257791,0.53958301 4.1140157,0.55506564 4.2522099,0.57931419 4.3730602,0.67112916 4.45095,0.78782882 4.5288398,0.90452848 4.566889,1.0442266 4.5802322,1.1838961 4.6069186,1.4632353 4.5395262,1.7441622 4.5548033,2.024357 4.5719571,2.3389722 4.6924894,2.6403228 4.7172758,2.9544289 4.729669,3.1114819 4.7171599,3.2730773 4.6576198,3.4189342 4.5980798,3.564791 4.4878024,3.6938029 4.3425723,3.7548558 4.2428441,3.7967802 4.1300161,3.8052179 4.0242169,3.7826371 3.9184176,3.7600563 3.8198402,3.7070554 3.7397659,3.6343128 3.5796173,3.4888277 3.498435,3.2691722 3.4936482,3.0528609 3.4908481,2.9263248 3.5120195,2.7988607 3.4933335,2.6736805 3.4839905,2.6110905 3.4643193,2.5492494 3.4290829,2.4966831 3.3938465,2.4441169 3.3421477,2.4013117 3.2814175,2.3835171 3.221079,2.3658373 3.1552038,2.3736644 3.0966471,2.3965645 3.0380904,2.4194647 2.986121,2.4566441 2.9385828,2.4977953 2.8714277,2.5559278 2.811976,2.6225 2.7449331,2.6807618 2.6778902,2.7390235 2.6010541,2.7897637 2.5141208,2.807979 2.4451885,2.8224225 2.3725339,2.8154947 2.3059531,2.7925321 2.2393723,2.7695696 2.1787366,2.730966 2.1265367,2.6836856 2.0221368,2.5891246 1.9526485,2.4624956 1.8937533,2.3345407 1.8555017,2.2514359 1.8202516,2.1656236 1.7640282,2.0934534 c -0.028112,-0.036085 -0.061435,-0.06848 -0.100296,-0.09261 -0.038861,-0.02413 -0.08344,-0.039791 -0.129139,-0.041788 -0.04843,-0.00212 -0.097124,0.011285 -0.1387798,0.036078 -0.041656,0.024794 -0.076315,0.060717 -0.1014707,0.1021551 -0.050311,0.082876 -0.061603,0.1852736 -0.046708,0.2810741 0.014895,0.095801 0.054191,0.1861374 0.099397,0.2719047 0.045206,0.085767 0.096688,0.1682333 0.1385856,0.2556643 C 1.556198,3.053218 1.5990423,3.2161895 1.5908002,3.3793061 1.582558,3.5424227 1.5202659,3.7054632 1.4039898,3.8201576 1.3073674,3.9154657 1.1748339,3.9744051 1.0391814,3.9786377 0.90352888,3.9828703 0.766301,3.9314504 0.66934383,3.8364829 Z"
       id="path174"
       inkscape:path-effect="#path-effect176"
       inkscape:original-d="M 0.66934383,3.8364829 C 0.42419738,3.8416603 0.65872478,2.8681037 0.65301838,2.3835171 0.64731198,1.8989305 0.67505024,1.3498359 0.68566931,0.83259844 0.69628837,0.31536097 1.3824868,1.0831867 1.7304987,1.208084 2.0785106,1.3329813 2.2749453,1.6763451 2.5467717,1.9100788 2.818598,2.1438124 3.0694511,1.4205796 3.3303937,1.1754331 3.5913366,0.9302866 3.8530731,0.76211937 4.1140157,0.55506564 4.3749587,0.34801188 4.4081387,1.5348578 4.5548033,2.024357 4.7014677,2.5138562 4.4135804,3.1782874 4.3425723,3.7548558 4.271564,4.3314241 3.7768876,3.2871238 3.4936482,3.0528609 3.2104091,2.818598 3.3524256,2.6068963 3.2814175,2.3835171 3.2104091,2.1601379 3.0531255,2.4599672 2.9385828,2.4977953 2.82404,2.5356235 2.6558726,2.7048491 2.5141208,2.807979 2.3723689,2.911109 2.100807,2.4926181 1.8937533,2.3345407 1.6866996,2.1764633 1.6545778,2.0844816 1.5345932,1.9590551 1.4146086,1.8336287 1.5022069,2.5905708 1.4856168,2.9059317 c -0.01659,0.3153611 -0.054154,0.6097484 -0.081627,0.9142259 -0.027474,0.3044772 -0.48949918,0.01115 -0.73464597,0.016325 z" />
    <path
       style="fill:#ffffff;stroke-width:0.264583"
       d="m 5.6649344,1.208084 c -0.045813,0.060835 -0.06705,0.1378727 -0.06872,0.2140102 -0.00167,0.076138 0.015229,0.1516888 0.03973,0.2237956 0.049003,0.1442137 0.1286829,0.2783014 0.1595935,0.4274436 0.037136,0.1791807 9.799e-4,0.3641207 -0.018066,0.5461154 -0.00952,0.090997 -0.014725,0.1829977 -0.00424,0.2738898 0.010481,0.090892 0.037257,0.1810846 0.087613,0.257475 0.068347,0.1036832 0.1764398,0.1762422 0.291779,0.2222687 0.1153392,0.046026 0.238704,0.06775 0.3612394,0.087915 0.1127369,0.018553 0.226348,0.036081 0.3405797,0.03386 0.1142317,-0.00222 0.2301244,-0.025182 0.3287641,-0.082836 C 7.3275807,3.3276326 7.4232028,3.1742684 7.4631936,3.0118883 7.5031843,2.8495082 7.4922541,2.6783557 7.460735,2.5141208 7.442544,2.4193339 7.4176214,2.3258841 7.4014727,2.230728 c -0.016149,-0.095156 -0.0234,-0.1930559 -0.00604,-0.2879983 0.028693,-0.1569155 0.1214969,-0.293232 0.1877251,-0.4383512 0.033114,-0.07256 0.06001,-0.148909 0.068109,-0.2282553 0.0081,-0.079346 -0.00365,-0.1622658 -0.043603,-0.2312938 C 7.5627993,0.9673229 7.4836239,0.91164371 7.3965381,0.89075867 7.3094523,0.86987364 7.2155363,0.88285637 7.135015,0.92205383 7.0544937,0.9612513 6.987326,1.0257659 6.9403907,1.1020364 c -0.046935,0.07627 -0.07406,0.1639417 -0.083698,0.2529767 -0.01668,0.154092 0.018019,0.3093035 0.065657,0.4567934 0.047637,0.1474899 0.108452,0.2908762 0.1465742,0.4411069 0.032017,0.1261724 0.047687,0.2585244 0.025453,0.3867829 C 7.0721437,2.7679549 7.0090902,2.8921849 6.9056694,2.9712338 6.8000082,3.0519951 6.6559451,3.079483 6.5276121,3.0445928 6.3992792,3.0097027 6.2893355,2.9136234 6.2363257,2.7916536 6.1952468,2.6971353 6.1877019,2.5907079 6.1988678,2.4882555 6.2100338,2.3858031 6.2391006,2.2862453 6.2689766,2.1876116 6.3138437,2.0394861 6.3611088,1.8906513 6.3754576,1.7365464 6.3898064,1.5824415 6.36859,1.4201613 6.2853014,1.2897113 6.2194024,1.1864976 6.1130159,1.1066339 5.9922853,1.0861435 5.93192,1.0758983 5.8688484,1.0805417 5.8112533,1.1013201 5.7536582,1.1220984 5.7017673,1.1591731 5.6649344,1.208084 Z"
       id="path182"
       inkscape:path-effect="#path-effect184"
       inkscape:original-d="M 5.6649344,1.208084 C 5.4578808,1.18061 5.7522684,1.7851815 5.795538,2.0733334 5.838808,2.3614852 5.839337,2.7919182 5.86084,3.1508136 5.882343,3.5097092 6.29645,3.3578675 6.5138584,3.4609973 6.7312666,3.5641274 6.9603521,3.428611 7.1832022,3.4120211 7.4060523,3.3954317 7.3684886,2.8136855 7.460735,2.5141208 7.5529815,2.2145561 7.4174651,2.133458 7.3954332,1.9427297 7.3734014,1.7520014 7.5371851,1.3443941 7.6076642,1.0448294 7.6781431,0.74526472 7.1072813,1.2518831 6.8566931,1.3550131 6.6061047,1.4581431 6.998445,1.9538779 7.0689239,2.2529134 7.1394031,2.5519489 6.9603521,2.7320581 6.9056694,2.9712338 6.8509866,3.2104091 6.4597046,2.8517781 6.2363257,2.7916536 6.0129464,2.7315289 6.2583575,2.3892235 6.2689766,2.1876116 6.2795943,1.9859997 6.2801235,1.589276 6.2853014,1.2897113 6.2904793,0.99014662 5.8719878,1.2355577 5.6649344,1.208084 Z" />
    <path
       style="fill:#ffffff;stroke-width:0.264583"
       d="m 9.5014176,1.4692914 c 0.081866,0.013495 0.1620081,0.036395 0.2440746,0.048614 0.082067,0.012219 0.1680349,0.013261 0.245689,-0.015963 C 10.080265,1.4684166 10.153087,1.3946693 10.186506,1.305545 10.219925,1.2164207 10.2137,1.1134523 10.170761,1.028504 10.141639,0.9708905 10.096693,0.9219526 10.044149,0.88444859 9.9916049,0.84694458 9.9316018,0.8206005 9.8694814,0.80303707 9.7452407,0.76791021 9.6142026,0.76759915 9.485092,0.7672966 9.3529156,0.76698687 9.2201889,0.76645436 9.0893193,0.78499785 8.9584498,0.80354134 8.8285089,0.84202329 8.7177953,0.91422573 8.5938274,0.99507204 8.4984781,1.1159457 8.4372226,1.2506748 c -0.061255,0.1347292 -0.08954,0.2829445 -0.094913,0.4308475 -0.00765,0.2104658 0.031252,0.4240798 0.1248862,0.612725 0.093634,0.1886451 0.2433672,0.3511905 0.4301795,0.4484298 0.1054914,0.05491 0.2205003,0.08847 0.3317235,0.1305768 0.1112232,0.042107 0.2216592,0.094737 0.3049696,0.179607 0.084582,0.086166 0.1365901,0.2037814 0.1425001,0.3243792 0.00591,0.1205978 -0.034534,0.2430442 -0.1118144,0.3358153 C 9.4874738,3.8058266 9.373996,3.8678295 9.25407,3.8818474 9.134144,3.8958654 9.0090953,3.8615248 8.913701,3.7875067 8.8242238,3.7180797 8.7638048,3.6189724 8.6967584,3.5276978 8.6632353,3.4820604 8.6274431,3.437726 8.5853273,3.3998733 8.5432114,3.3620206 8.4943962,3.3306849 8.4402625,3.3140684 8.3634246,3.2904827 8.2776162,3.2983299 8.2058751,3.3345731 8.134134,3.3708162 8.0770981,3.4348757 8.0484516,3.5099738 c -0.024397,0.063959 -0.028453,0.1348932 -0.015757,0.20216 0.012696,0.067267 0.041727,0.1309215 0.080627,0.1872491 0.0778,0.1126552 0.1924939,0.1943895 0.3106152,0.2636093 0.174306,0.1021444 0.3629802,0.1827412 0.5615842,0.2197886 0.1986041,0.037047 0.4077765,0.029161 0.5975234,-0.040209 C 9.7751567,4.2723377 9.9440112,4.1386388 10.053623,3.9659393 10.163235,3.7932399 10.212371,3.5823495 10.187087,3.3793702 10.157653,3.1430753 10.030326,2.9259968 9.8605775,2.7590027 9.6900695,2.5912616 9.4797082,2.4709674 9.272861,2.3508662 9.1887267,2.3020155 9.1040613,2.2523788 9.0321372,2.1868662 8.9602132,2.1213536 8.9010644,2.0379368 8.8810501,1.9427297 8.8636002,1.859721 8.8773329,1.7710576 8.9162351,1.6956815 8.9551373,1.6203054 9.0185264,1.5583517 9.0932808,1.5182677 c 0.122971,-0.065938 0.270461,-0.071672 0.4081368,-0.048976 z"
       id="path186"
       inkscape:path-effect="#path-effect188"
       inkscape:original-d="m 9.5014176,1.4692914 c 0.1357807,-0.01659 0.3267736,0.022032 0.4897636,0.032651 C 10.154171,1.5125613 10.111166,1.1865813 10.170761,1.028504 10.230357,0.87042658 9.7139129,0.8546303 9.485092,0.7672966 9.2562711,0.67996289 8.9738254,0.86551393 8.7177953,0.91422573 8.4617654,0.96293754 8.4677363,1.4260214 8.3423097,1.6815223 8.2168835,1.9370233 8.7126182,2.3892235 8.8973754,2.7426771 9.0821326,3.0961308 9.322102,2.9497311 9.5340685,3.0528609 9.7460346,3.155991 9.1207547,3.5428893 8.913701,3.7875067 8.7066471,4.032124 8.5983399,3.4721456 8.4402625,3.3140684 8.2821853,3.155991 8.1793198,3.4449366 8.0484516,3.5099738 7.9175834,3.5750111 8.2990398,3.9455841 8.4239371,4.1629922 8.5488345,4.3804003 9.1969401,4.2829768 9.5830447,4.3425723 9.9691493,4.4021676 9.9860041,3.7007022 10.187087,3.3793702 10.388169,3.0580383 9.9696785,2.9660564 9.8605775,2.7590027 9.7514766,2.5519489 9.4690312,2.4871763 9.272861,2.3508662 9.0766909,2.2145561 9.0119183,2.0790398 8.8810501,1.9427297 8.7501816,1.8064196 9.0228019,1.6600197 9.0932808,1.5182677 9.16376,1.3765158 9.3656366,1.4858814 9.5014176,1.4692914 Z" />
    <path
       style="fill:#ffffff;stroke-width:0.264583"
       d="m 10.529921,1.1101312 c -0.01323,-0.075846 0.0087,-0.15709683 0.05829,-0.21598831 0.04959,-0.0588915 0.125927,-0.0943261 0.202918,-0.0941954 0.07557,1.2825e-4 0.148686,0.0331771 0.206421,0.0819293 0.05773,0.0487522 0.101267,0.1123842 0.136413,0.17927808 0.08838,0.1682135 0.126776,0.360069 0.126694,0.5500868 -8.2e-5,0.1900177 -0.03757,0.3786142 -0.09404,0.5600444 -0.02728,0.087634 -0.05932,0.1756252 -0.06139,0.2673836 -0.001,0.045879 0.0057,0.092347 0.02367,0.1345693 0.01798,0.042222 0.04765,0.08004 0.08671,0.1041363 0.04696,0.028972 0.104743,0.036626 0.159596,0.030661 0.05485,-0.00596 0.107484,-0.024643 0.158665,-0.045259 0.05118,-0.020616 0.101705,-0.04338 0.154868,-0.058153 0.05316,-0.014774 0.109807,-0.021311 0.163564,-0.00888 0.0585,0.013531 0.110538,0.049148 0.149739,0.094625 0.0392,0.045477 0.06623,0.100436 0.08514,0.1574202 0.03783,0.1139685 0.04422,0.2360061 0.0753,0.3519967 0.04426,0.1651816 0.137401,0.3140843 0.181304,0.4793603 0.02195,0.082638 0.0312,0.1699915 0.0146,0.253869 -0.0166,0.083878 -0.06091,0.1641173 -0.130605,0.2136472 -0.03922,0.027868 -0.08558,0.045447 -0.133342,0.051231 -0.04776,0.00578 -0.09682,-1.748e-4 -0.14204,-0.016608 -0.09043,-0.032866 -0.163394,-0.1081194 -0.198056,-0.1978776 -0.03656,-0.094669 -0.03182,-0.1997836 -0.02193,-0.3007828 0.0099,-0.1009992 0.02434,-0.2035235 0.0056,-0.3032591 -0.01501,-0.079852 -0.05282,-0.15721 -0.115028,-0.2094738 -0.03111,-0.026132 -0.06797,-0.045641 -0.107468,-0.055144 -0.0395,-0.0095 -0.0816,-0.00883 -0.120339,0.00341 -0.06212,0.019636 -0.112661,0.068301 -0.142807,0.1260611 -0.03015,0.05776 -0.04129,0.1239794 -0.04111,0.189133 3.7e-4,0.1303073 0.04404,0.2568231 0.05331,0.3868008 0.0044,0.062314 8.15e-4,0.1257358 -0.01693,0.1856363 -0.01774,0.0599 -0.05017,0.1162515 -0.09735,0.1571983 -0.05142,0.044626 -0.119482,0.069375 -0.187567,0.069081 -0.06808,-2.938e-4 -0.13565,-0.025451 -0.187919,-0.069081 -0.03902,-0.032568 -0.0694,-0.074826 -0.09094,-0.1208548 -0.02154,-0.046029 -0.03444,-0.095799 -0.04136,-0.1461475 -0.01384,-0.100697 -0.0041,-0.2029093 0.0017,-0.3043887 0.03226,-0.5664886 -0.06058,-1.1316735 -0.09795,-1.6978479 -0.01722,-0.260785 -0.02266,-0.5223465 -0.01632,-0.7836221 z"
       id="path190"
       inkscape:path-effect="#path-effect192"
       inkscape:original-d="m 10.529921,1.1101312 c -0.0057,-0.26147189 0.174403,-0.20652452 0.261208,-0.31018369 0.0868,-0.10365914 0.228821,0.17440283 0.342834,0.26120739 0.114014,0.086804 0.02203,0.7403521 0.03265,1.1101312 0.01062,0.3697792 0.03292,0.3376574 0.04898,0.5060892 0.01606,0.1684319 0.424726,-0.054154 0.636693,-0.081627 0.211966,-0.027474 0.207054,0.4029592 0.310183,0.604042 0.10313,0.2010828 0.0438,0.6315157 0.0653,0.9468765 0.0215,0.3153611 -0.315361,-0.1085717 -0.473438,-0.1632545 -0.158078,-0.054683 -0.01062,-0.4024299 -0.01633,-0.6040419 -0.0057,-0.201612 -0.228292,-0.1738738 -0.342835,-0.2612075 -0.114542,-0.087334 -0.0868,0.4682612 -0.130603,0.7019949 -0.0438,0.2337337 -0.07592,0.2288209 -0.114278,0.3428346 -0.03836,0.1140137 -0.25006,2.646e-4 -0.375486,0 -0.125427,-2.646e-4 -0.08681,-0.3806629 -0.130604,-0.571391 -0.0438,-0.1907283 -0.06504,-1.131634 -0.09795,-1.6978479 -0.03291,-0.5662139 -0.01062,-0.5221501 -0.01632,-0.7836221 z" />
    <path
       style="fill:#ffffff;stroke-width:0.264583"
       d="m 12.995066,1.5672441 c -0.01802,0.3483803 -0.0071,0.698254 0.03265,1.0448293 0.03487,0.3041502 0.09193,0.6111103 0.04898,0.9142259 -0.01166,0.082266 -0.03064,0.1635651 -0.03718,0.2463947 -0.0065,0.08283 1.16e-4,0.1690071 0.03718,0.2433688 0.03178,0.063762 0.08567,0.1163506 0.150442,0.1460169 0.06477,0.029666 0.140013,0.036088 0.208718,0.017238 0.05955,-0.016337 0.113389,-0.051038 0.155751,-0.095963 0.04236,-0.044925 0.0735,-0.099807 0.09407,-0.1580268 0.04115,-0.1164403 0.0402,-0.2435147 0.02771,-0.3663772 -0.01954,-0.192169 -0.06599,-0.3807192 -0.08843,-0.5725706 -0.02244,-0.1918513 -0.01954,-0.392344 0.05578,-0.5702117 0.05519,-0.1303167 0.150806,-0.2458437 0.276352,-0.3111595 0.06277,-0.032658 0.132415,-0.052496 0.203098,-0.055816 0.07068,-0.00332 0.142327,0.010056 0.20622,0.040466 0.101222,0.048177 0.177562,0.1350973 0.2642,0.206237 0.04332,0.03557 0.09016,0.067746 0.142349,0.088188 0.05219,0.020442 0.110285,0.028614 0.164842,0.015759 0.05483,-0.01292 0.10378,-0.046829 0.138386,-0.091278 0.03461,-0.04445 0.05525,-0.098959 0.06286,-0.1547755 0.01521,-0.1116333 -0.0205,-0.224448 -0.07064,-0.3253372 -0.07753,-0.1559747 -0.195394,-0.2974619 -0.352526,-0.3726187 -0.07857,-0.037578 -0.165962,-0.057753 -0.252972,-0.053998 -0.08701,0.00375 -0.173439,0.03195 -0.243426,0.083782 -0.06751,0.05 -0.117639,0.1195896 -0.163682,0.1898608 -0.04604,0.070271 -0.08965,0.1430454 -0.14802,0.2034695 -0.02919,0.030212 -0.06201,0.057174 -0.09877,0.07752 -0.03675,0.020347 -0.07753,0.033968 -0.119424,0.037043 -0.04189,0.00307 -0.0849,-0.00468 -0.121871,-0.02461 -0.03697,-0.019934 -0.06757,-0.052359 -0.08288,-0.091472 -0.01003,-0.025606 -0.01345,-0.053433 -0.01312,-0.080931 3.3e-4,-0.027498 0.0043,-0.054812 0.0087,-0.081967 0.0087,-0.054309 0.0188,-0.1105135 0.0045,-0.1636117 -0.01504,-0.055685 -0.05695,-0.1024466 -0.10869,-0.1279485 -0.05174,-0.025502 -0.112341,-0.030576 -0.168843,-0.018981 -0.0905,0.018571 -0.171068,0.080548 -0.212231,0.1632548 z"
       id="path214"
       inkscape:original-d="m 12.995066,1.5672441 c -0.07101,0.054154 0.02203,0.6968175 0.03265,1.0448293 0.01062,0.348012 0.03291,0.6097484 0.04898,0.9142259 0.01606,0.3044772 2.65e-4,0.3267736 0,0.4897635 -2.64e-4,0.1629903 0.239705,0.1091012 0.35916,0.1632548 0.119456,0.054154 0.185287,-0.4133138 0.277533,-0.6203674 0.09225,-0.207054 -0.0215,-0.7615902 -0.03265,-1.1427823 -0.01115,-0.3811921 0.457378,-0.2174081 0.68567,-0.3265093 C 14.5947,1.9805577 14.747601,2.2967125 14.9378,2.3998423 15.127999,2.5029724 15.02513,2.0191797 15.068403,1.8284514 15.111673,1.637723 14.502719,1.6001596 14.219479,1.4856167 13.93624,1.3710738 13.72998,1.7470885 13.484834,1.8774278 c -0.245147,0.1303391 2.64e-4,-0.2174083 0,-0.3265093 -2.65e-4,-0.1091009 -0.184758,-0.097688 -0.277533,-0.1469292 -0.09278,-0.049241 -0.141223,0.1091012 -0.212231,0.1632548 z"
       inkscape:path-effect="#path-effect216" />
    <path
       style="fill:#ffffff;stroke-width:0.264583"
       d="m 16.080578,1.6978477 c -0.107777,0.042146 -0.20149,0.1169001 -0.272677,0.2081395 -0.07119,0.091239 -0.120387,0.1985483 -0.150597,0.3102604 -0.06042,0.2234244 -0.04563,0.459948 -0.01751,0.6896842 0.02582,0.2110229 0.06274,0.4216729 0.130727,0.623105 0.06799,0.2014321 0.168081,0.3940906 0.310061,0.5523281 0.102382,0.1141045 0.226443,0.2096324 0.366005,0.273069 0.139562,0.063437 0.294776,0.094187 0.447575,0.081765 0.152799,-0.012422 0.302744,-0.06885 0.421588,-0.1656895 0.118845,-0.096839 0.205231,-0.2344943 0.234123,-0.3850503 C 17.571952,3.7703855 17.56082,3.6510854 17.535425,3.536697 17.51003,3.4223087 17.470658,3.3115929 17.435591,3.1997899 17.312741,2.808111 17.23661,2.3887207 16.994803,2.0570077 16.890993,1.9146004 16.756401,1.7913901 16.595168,1.7202535 16.433936,1.6491169 16.244703,1.6336665 16.080578,1.6978477 Z"
       id="path226"
       inkscape:original-d="M 16.080578,1.6978477 C 15.775571,1.5778632 15.786984,2.5035016 15.63979,2.9059318 15.492597,3.3083617 15.933913,3.6898184 16.080578,4.0813649 16.227242,4.4729112 17.06037,3.9510256 17.549869,3.8854592 18.039368,3.8198928 17.473948,3.4286111 17.435591,3.1997899 17.397234,2.970969 17.141997,2.4381998 16.994803,2.0570077 16.84761,1.6758159 16.385584,1.8178323 16.080578,1.6978477 Z"
       inkscape:path-effect="#path-effect228" />
    <path
       style="fill:#000000;stroke-width:0.264583"
       d="m 16.194856,2.8896062 c 0.0055,0.2389778 0.04983,0.4770151 0.130604,0.7019949 0.03996,0.1112932 0.09115,0.2227489 0.178668,0.30227 0.04376,0.039761 0.09627,0.070645 0.153617,0.085055 0.05734,0.01441 0.119577,0.011722 0.173804,-0.01184 0.04054,-0.017614 0.07577,-0.04638 0.103577,-0.080737 0.02781,-0.034357 0.04838,-0.074204 0.06324,-0.1158291 0.02973,-0.08325 0.0368,-0.1725676 0.04541,-0.260547 0.02476,-0.2528871 0.06398,-0.511572 0.0026,-0.7581404 -0.03069,-0.1232842 -0.08739,-0.2417593 -0.174822,-0.3339402 -0.08743,-0.092181 -0.207094,-0.1564103 -0.333853,-0.1649797 -0.07062,-0.00477 -0.142481,0.00771 -0.206916,0.037018 -0.06444,0.029303 -0.121266,0.075459 -0.162297,0.1331401 -0.04103,0.057681 -0.06605,0.1268004 -0.07038,0.1974534 -0.0043,0.070653 0.01217,0.1426038 0.04778,0.2037794 0.01372,0.023569 0.03019,0.045533 0.04898,0.065302 z"
       id="path544"
       inkscape:original-d="m 16.194856,2.8896062 c 0.01606,0.021503 0.08733,0.4682612 0.130604,0.7019949 0.04327,0.2337337 0.337657,0.2505882 0.506089,0.3754855 C 16.999981,4.091984 16.973301,3.6626091 17.04378,3.5099737 17.11426,3.3573382 16.706652,2.6721981 16.537691,2.2529134 16.36873,1.8336287 16.276748,2.6341052 16.14588,2.8243044 c -0.130869,0.1901991 0.03292,0.043799 0.04898,0.065302 z"
       inkscape:path-effect="#path-effect546" />
    <path
       style="fill:#ffffff;stroke-width:0.264583"
       d="m 17.827402,1.6325459 c -0.0901,0.1686489 -0.122897,0.3627215 -0.127692,0.5538672 -0.0048,0.1911458 0.01703,0.3818067 0.02974,0.5725895 0.01386,0.2079693 0.01698,0.4173565 0.0528,0.6226869 0.03581,0.2053304 0.106938,0.4095269 0.24106,0.5690715 0.116227,0.138258 0.278463,0.2381257 0.455266,0.275066 0.176804,0.03694 0.367066,0.0098 0.524262,-0.07916 0.177267,-0.1003155 0.305306,-0.2723266 0.388451,-0.4582663 0.08315,-0.1859396 0.125616,-0.3870492 0.166615,-0.5865632 0.04874,-0.2371695 0.09637,-0.4761093 0.10155,-0.7181791 0.0052,-0.2420699 -0.03426,-0.489753 -0.15053,-0.702136 -0.08228,-0.1502987 -0.202242,-0.2800477 -0.346698,-0.3722005 -0.144456,-0.092153 -0.313192,-0.146327 -0.484387,-0.1535454 -0.171194,-0.00722 -0.344394,0.032765 -0.49417,0.1159917 -0.149776,0.083227 -0.275529,0.2096456 -0.356267,0.360778 z"
       id="path548"
       inkscape:original-d="m 17.827402,1.6325459 c -0.560772,-0.016589 -0.06504,0.7512357 -0.09795,1.1264567 -0.03292,0.3752209 0.19617,0.7947702 0.293858,1.1917584 0.09769,0.3969883 0.653283,0.1308685 0.979528,0.1959057 0.326245,0.065037 0.370309,-0.6962883 0.555066,-1.0448295 0.184757,-0.3485409 -0.03239,-0.9466119 -0.04898,-1.4203151 -0.01659,-0.4737028 -1.12075,-0.032386 -1.681522,-0.048976 z"
       inkscape:path-effect="#path-effect550" />
    <path
       style="fill:#000000;stroke-width:0.264583"
       d="m 18.104935,2.2365878 c -0.03972,0.1814654 -0.02904,0.3714236 0.011,0.552819 0.04004,0.1813955 0.10874,0.3552299 0.184902,0.5246614 0.02924,0.065052 0.05987,0.1300094 0.101376,0.1880079 0.04151,0.057999 0.09482,0.1091833 0.159832,0.1385012 0.07245,0.032669 0.156468,0.036214 0.233263,0.015758 0.07679,-0.020456 0.146445,-0.063972 0.203206,-0.1195969 0.113522,-0.1112505 0.173765,-0.2654963 0.216549,-0.4185758 0.08345,-0.2985972 0.110842,-0.6246761 0,-0.9142259 -0.0576,-0.1504819 -0.154247,-0.2894102 -0.289278,-0.3773296 -0.06752,-0.04396 -0.144,-0.074647 -0.223674,-0.086599 -0.07967,-0.011952 -0.162491,-0.0049 -0.238019,0.023141 -0.09687,0.035965 -0.179393,0.1055937 -0.23922,0.189847 -0.05983,0.084253 -0.09784,0.1826473 -0.11994,0.2835913 z"
       id="path552"
       inkscape:original-d="m 18.104935,2.2365878 c -0.119985,0.1575483 0.130868,0.7185848 0.195905,1.0774804 0.06504,0.3588954 0.174403,0.2179373 0.261208,0.3265091 0.0868,0.108572 0.43561,-0.3480118 0.653018,-0.5224145 0.217408,-0.174403 2.65e-4,-0.6092193 0,-0.9142259 -2.64e-4,-0.3050064 -0.500383,-0.2935936 -0.750971,-0.4407874 -0.250588,-0.1471937 -0.239176,0.3158901 -0.35916,0.4734383 z"
       inkscape:path-effect="#path-effect554" />
    <path
       style="fill:#ffffff;stroke-width:0.264583"
       d="m 20.357848,2.3998423 c -0.0072,-0.1020506 0.03855,-0.2063923 0.118432,-0.2702999 0.07989,-0.063908 0.191717,-0.085606 0.289705,-0.056209 0.0774,0.023221 0.143999,0.075915 0.192547,0.1405159 0.04855,0.064601 0.08005,0.1406818 0.101311,0.2186443 0.05707,0.2092673 0.04253,0.4303498 0.03295,0.6470482 -0.0096,0.2166983 -0.01267,0.4401349 0.065,0.642663 0.02934,0.076523 0.07102,0.1501191 0.132712,0.2040737 0.03084,0.026977 0.06649,0.048727 0.105265,0.061986 0.03877,0.013259 0.08071,0.017881 0.121183,0.011473 0.0395,-0.00625 0.07713,-0.022946 0.109137,-0.046916 0.03201,-0.02397 0.05844,-0.055104 0.07815,-0.0899 0.03942,-0.069591 0.05137,-0.1524616 0.04413,-0.2321139 -0.01447,-0.1593046 -0.100133,-0.3016284 -0.166121,-0.4473432 -0.05139,-0.1134731 -0.09197,-0.2332682 -0.103235,-0.357324 -0.01127,-0.1240557 0.0083,-0.2531229 0.07059,-0.3609962 0.06805,-0.1178414 0.187495,-0.2056211 0.321047,-0.2317139 0.133552,-0.026093 0.278833,0.011167 0.380947,0.10111 0.0627,0.055223 0.108473,0.1282575 0.136874,0.2068303 0.0284,0.078573 0.0399,0.1626109 0.04009,0.2461589 3.92e-4,0.1670959 -0.04342,0.3306264 -0.07902,0.4938876 -0.01746,0.080087 -0.03308,0.1619564 -0.02541,0.2435648 0.0038,0.040804 0.01359,0.081265 0.03118,0.1182861 0.01758,0.037021 0.04317,0.070542 0.07586,0.095262 0.03594,0.027178 0.07989,0.043166 0.124754,0.047412 0.04486,0.00425 0.09053,-0.00305 0.1326,-0.019195 0.08413,-0.03229 0.151927,-0.09877 0.199759,-0.1751462 0.06902,-0.1102091 0.09983,-0.2419825 0.09864,-0.3720152 -0.0012,-0.1300327 -0.03327,-0.25852 -0.08231,-0.3789559 -0.04065,-0.099829 -0.09329,-0.1958924 -0.115847,-0.3012949 -0.01128,-0.052701 -0.01475,-0.1075737 -0.0049,-0.1605544 0.0099,-0.052981 0.03367,-0.1040471 0.07174,-0.1421929 0.04668,-0.046771 0.113325,-0.07176 0.179404,-0.071453 0.06608,3.068e-4 0.131103,0.024998 0.183505,0.065255 0.0524,0.040258 0.09243,0.095515 0.118521,0.156227 0.02609,0.060712 0.03857,0.1267694 0.04098,0.1928055 0.0054,0.1465988 -0.03779,0.2902357 -0.05403,0.4360308 -0.0081,0.072898 -0.0094,0.1472222 0.0053,0.21907 0.01476,0.071848 0.0464,0.1413886 0.09769,0.1938232 0.06758,0.069091 0.167849,0.1041074 0.263981,0.094126 0.09613,-0.00998 0.186382,-0.064138 0.242108,-0.1431031 0.03649,-0.051707 0.05842,-0.1128631 0.06827,-0.1753785 0.0099,-0.062515 0.0079,-0.1264648 -4.29e-4,-0.1891964 -0.01673,-0.1254632 -0.05881,-0.2460653 -0.08418,-0.3700703 -0.03241,-0.1584552 -0.03731,-0.3211863 -0.06076,-0.4812139 -0.02345,-0.1600276 -0.06789,-0.3221457 -0.167798,-0.4493373 -0.0666,-0.084786 -0.15571,-0.1506608 -0.253522,-0.1960107 -0.09781,-0.04535 -0.204201,-0.07064 -0.31148,-0.081368 -0.214558,-0.021455 -0.430215,0.014426 -0.643082,0.048822 -0.378091,0.061094 -0.761521,0.118031 -1.142782,0.081627 -0.228546,-0.021822 -0.454286,-0.077073 -0.683872,-0.07718 -0.114793,-5.33e-5 -0.230446,0.013993 -0.338769,0.051986 -0.108324,0.037993 -0.209264,0.1008021 -0.283396,0.1884485 -0.08414,0.099479 -0.13084,0.2284893 -0.137079,0.3586302 -0.0062,0.1301408 0.02696,0.2609627 0.0881,0.3760156 0.02789,0.052478 0.0624,0.1028474 0.10994,0.1385038 0.02377,0.017828 0.05065,0.03175 0.07938,0.03934 0.02873,0.00759 0.05933,0.00873 0.08821,0.00174 0.04995,-0.012087 0.09308,-0.049452 0.112166,-0.097165 0.01908,-0.047713 0.01362,-0.1045186 -0.01422,-0.1477166 z"
       id="path556"
       inkscape:original-d="m 20.357848,2.3998423 c 0.03239,-0.081892 0.272356,-0.2174081 0.408137,-0.326509 0.135781,-0.109101 0.19617,0.2397045 0.293858,0.3591602 0.09769,0.1194554 0.06557,0.860072 0.09795,1.2897112 0.03239,0.4296391 0.239705,0.1852864 0.35916,0.2775328 0.119456,0.092246 0.0438,-0.5439174 0.0653,-0.8162729 0.0215,-0.2723557 -0.0215,-0.4786156 -0.03265,-0.7183202 -0.01115,-0.2397048 0.468261,-0.086805 0.701994,-0.1306039 0.233734,-0.043799 0.06557,0.6315157 0.09795,0.9468768 0.03239,0.3153609 0.05468,0.3050064 0.08163,0.457113 0.02694,0.1521063 0.305007,-0.097688 0.457113,-0.1469292 0.152106,-0.049241 0.01115,-0.5003829 0.01633,-0.7509711 0.0052,-0.2505885 -0.03239,-0.4024302 -0.04898,-0.6040422 -0.01659,-0.201612 0.348541,0.2288212 0.522414,0.3428347 0.173874,0.1140137 0.03292,0.5662138 0.04898,0.848924 0.01606,0.28271 0.337657,-0.032386 0.506089,-0.048977 0.168428,-0.016589 -0.01062,-0.4894987 -0.01633,-0.7346452 -0.0057,-0.2451465 -0.152106,-0.6201029 -0.228556,-0.9305512 -0.07645,-0.3104484 -0.805125,-0.1521064 -1.208084,-0.2285564 -0.402959,-0.07645 -0.76159,0.054683 -1.142782,0.081627 -0.381192,0.026944 -0.870426,0.1091009 -1.306037,0.1632545 -0.43561,0.054154 -0.03239,0.4900285 -0.04898,0.7346458 -0.01659,0.2446171 0.185286,0.1199846 0.277533,0.1795799 0.09225,0.059595 0.06557,-0.16299 0.09795,-0.244882 z"
       inkscape:path-effect="#path-effect558" />
    <path
       style="fill:#ffffff;stroke-width:0.264583"
       d="m 9.801385,8.0780839 c 0.011328,0.1561514 0.098208,0.3050874 0.228557,0.39181 0.05517,0.036706 0.119127,0.062968 0.185388,0.063788 0.03313,4.1e-4 0.06649,-0.00563 0.09678,-0.019042 0.0303,-0.01341 0.05745,-0.034304 0.07699,-0.061066 0.02972,-0.040719 0.04042,-0.092563 0.04166,-0.1429603 0.0012,-0.050397 -0.0062,-0.1005661 -0.009,-0.1508987 -0.0074,-0.1305902 0.01608,-0.2610138 0.01633,-0.391811 3.95e-4,-0.2037637 -0.05604,-0.405344 -0.146929,-0.587716 -0.07757,-0.1556564 -0.181577,-0.3028988 -0.21237,-0.4740658 -0.0154,-0.085584 -0.01101,-0.1763919 0.02429,-0.2558607 0.01765,-0.039734 0.04292,-0.076244 0.07499,-0.1056012 0.03207,-0.029358 0.07101,-0.051442 0.11309,-0.062373 0.0559,-0.014519 0.116046,-0.00896 0.170268,0.010919 0.05422,0.019881 0.102733,0.05358 0.144052,0.09393 0.08264,0.0807 0.136042,0.1857885 0.191769,0.286961 0.04503,0.081744 0.09329,0.1632243 0.16004,0.2284436 0.06675,0.065219 0.154779,0.1133324 0.248097,0.1143914 0.07937,9.007e-4 0.157504,-0.033 0.215179,-0.087536 0.05767,-0.054536 0.09534,-0.1285729 0.11133,-0.2063219 0.01147,-0.055795 0.01221,-0.1132125 0.02015,-0.169619 0.0079,-0.056407 0.02418,-0.1138333 0.06148,-0.156891 0.02984,-0.034446 0.07188,-0.057525 0.116489,-0.066854 0.0446,-0.00933 0.09157,-0.00526 0.134845,0.00902 0.08655,0.028547 0.155759,0.09593 0.205779,0.1721175 0.07698,0.1172573 0.114284,0.2566865 0.130805,0.3959806 0.01652,0.139294 0.01341,0.2800483 0.01612,0.4202924 0.0039,0.1997966 0.02056,0.4034745 0.09795,0.587716 0.02936,0.069905 0.06763,0.1367896 0.119299,0.1922791 0.05167,0.055489 0.117397,0.099243 0.190885,0.1179049 0.0752,0.019097 0.157353,0.010741 0.226403,-0.024643 0.06905,-0.035385 0.124141,-0.097791 0.149082,-0.1712616 0.01816,-0.053497 0.02048,-0.1116239 0.01167,-0.167428 -0.0088,-0.055804 -0.02845,-0.1094701 -0.05314,-0.1602865 C 12.91033,7.5997645 12.840984,7.5090359 12.788948,7.4087399 12.676187,7.1914008 12.649957,6.9406322 12.634062,6.6962992 12.618168,6.4519662 12.609813,6.2027842 12.527741,5.9720996 12.482519,5.8449905 12.412514,5.7224958 12.304896,5.6411315 c -0.05381,-0.040682 -0.116492,-0.07029 -0.18289,-0.082196 -0.0664,-0.011905 -0.136493,-0.00566 -0.198307,0.021352 -0.06554,0.028638 -0.11947,0.079133 -0.163567,0.1354438 -0.0441,0.056311 -0.07943,0.1188458 -0.117254,0.1795471 -0.03783,0.060701 -0.07883,0.1203962 -0.131972,0.1682622 -0.05314,0.047866 -0.11988,0.083461 -0.191249,0.088138 -0.05586,0.00366 -0.111387,-0.011598 -0.163254,-0.032651 -0.1194,-0.048465 -0.223595,-0.127053 -0.331739,-0.1971264 -0.108143,-0.070073 -0.225638,-0.1336159 -0.353931,-0.1457082 -0.109105,-0.010284 -0.220564,0.018339 -0.314494,0.07479 -0.09393,0.056451 -0.170519,0.1398784 -0.224246,0.2353931 -0.096457,0.1714792 -0.1184184,0.3755726 -0.109541,0.5721184 0.00888,0.1965457 0.0464,0.3907536 0.060561,0.5869894 0.020169,0.279481 -0.00756,0.562357 -0.08163,0.832599 z"
       id="path755"
       inkscape:original-d="m 9.801385,8.0780839 c 0.07101,0.130868 0.152636,0.261471 0.228557,0.39181 0.07592,0.130339 0.239704,-0.01062 0.35916,-0.01632 0.119455,-0.0057 0.02203,-0.195641 0.03265,-0.293859 0.01062,-0.09822 0.01115,-0.260942 0.01633,-0.391811 0.0052,-0.130868 -0.09769,-0.391546 -0.146929,-0.587716 -0.04924,-0.196171 2.64e-4,-0.598336 0,-0.8979005 -2.65e-4,-0.2995647 0.337657,0.2614715 0.506089,0.3918105 0.168432,0.13034 0.272356,0.228822 0.408137,0.342835 0.13578,0.114014 0.217937,-0.195641 0.326509,-0.293858 0.108572,-0.09822 0.05468,-0.217408 0.08163,-0.32651 0.02694,-0.1091004 0.305006,0.07645 0.457113,0.114279 0.152106,0.03783 0.09822,0.544446 0.146929,0.816273 0.04871,0.271826 0.06557,0.392075 0.09795,0.587716 0.03239,0.195641 0.207054,0.207054 0.310184,0.310184 0.10313,0.10313 0.250588,-0.130339 0.375485,-0.195905 0.124898,-0.065571 -0.141222,-0.413318 -0.212231,-0.620372 -0.07101,-0.207054 -0.173873,-0.957495 -0.261207,-1.4366403 -0.08733,-0.4791448 -0.40243,-0.2609429 -0.604042,-0.3918111 -0.201612,-0.1308682 -0.40243,0.3811921 -0.604042,0.5713912 -0.201612,0.1901982 -0.108572,-0.021503 -0.163254,-0.032651 -0.05468,-0.011148 -0.456849,-0.228292 -0.68567,-0.3428346 -0.228821,-0.1145429 -0.358895,0.2070536 -0.53874,0.3101834 -0.179845,0.1031301 -0.03239,0.7730028 -0.04898,1.1591078 -0.01659,0.386105 -0.05415,0.55533 -0.08163,0.832599 z"
       inkscape:path-effect="#path-effect757" />
    <path
       id="path1029"
       style="fill:#f9f9f9;stroke-width:0.264583"
       d="m 14.537418,6.0857363 c -0.05215,-2.912e-4 -0.104681,0.00693 -0.153479,0.025321 -0.0488,0.018387 -0.0935,0.048281 -0.125574,0.0894 -0.03816,0.04893 -0.05706,0.1131968 -0.04858,0.174666 0.0085,0.06147 0.04496,0.119182 0.09767,0.151929 0.04266,0.02651 0.09404,0.03658 0.144177,0.03359 0.05014,-0.003 0.09887,-0.018188 0.144694,-0.038758 0.09164,-0.04114 0.173132,-0.103622 0.266134,-0.141593 0.06107,-0.02493 0.126865,-0.038877 0.192753,-0.035657 0.06589,0.0032 0.131388,0.024239 0.183968,0.064079 0.05258,0.03984 0.0913,0.098693 0.101803,0.163814 0.0053,0.03256 0.0035,0.066506 -0.0057,0.098186 -0.0092,0.03167 -0.02571,0.061486 -0.04858,0.085266 -0.02377,0.02472 -0.05366,0.042757 -0.08578,0.054777 -0.03212,0.01202 -0.06655,0.017914 -0.100769,0.020154 -0.06844,0.0045 -0.136685,-0.00582 -0.205156,-0.00982 -0.135194,-0.008 -0.272608,0.00872 -0.399975,0.054777 -0.127368,0.04603 -0.244633,0.121731 -0.334864,0.222725 -0.05487,0.06142 -0.09954,0.132201 -0.127124,0.209807 -0.02758,0.07761 -0.03737,0.162166 -0.02377,0.243396 0.0136,0.08123 0.05089,0.158712 0.109554,0.216524 0.05866,0.05781 0.138857,0.095058 0.221175,0.097668 0.0925,0.0029 0.18167,-0.036099 0.259416,-0.086299 0.07775,-0.0502 0.147218,-0.112316 0.224793,-0.162781 0.07757,-0.05047 0.166375,-0.08984 0.258899,-0.08785 0.04626,9.94e-4 0.09275,0.01265 0.132291,0.03669 0.03954,0.02404 0.07201,0.06091 0.08785,0.104387 0.01199,0.0329 0.01414,0.068439 0.02067,0.102836 0.0033,0.0172 0.0075,0.034076 0.01447,0.050126 0.007,0.01605 0.01696,0.031181 0.02997,0.042891 0.01368,0.01231 0.03061,0.020815 0.04858,0.024805 0.01796,0.004 0.0368,0.00345 0.05478,-5.17e-4 0.03596,-0.0078 0.06785,-0.029524 0.0925,-0.056844 0.03693,-0.04092 0.05903,-0.093964 0.06821,-0.148311 0.0092,-0.05435 0.0061,-0.110413 -0.0026,-0.164848 -0.01728,-0.108871 -0.05674,-0.213618 -0.06563,-0.323494 -0.01024,-0.126632 0.02043,-0.252483 0.03824,-0.378272 0.0089,-0.06289 0.01462,-0.126791 0.01034,-0.190169 -0.0043,-0.06338 -0.01879,-0.12683 -0.04858,-0.182935 -0.03177,-0.059865 -0.0802,-0.1097505 -0.135909,-0.148311 -0.05572,-0.038559 -0.118689,-0.065904 -0.18346,-0.085781 -0.129542,-0.039755 -0.265902,-0.050237 -0.398942,-0.075964 -0.102397,-0.019801 -0.204216,-0.049027 -0.308508,-0.049609 z" />
    <path
       style="fill:#000000;stroke-width:0.264583"
       d="m 14.264756,7.3481339 c 0.08049,-0.1710687 0.229006,-0.3089718 0.40556,-0.376592 0.06593,-0.02525 0.138391,-0.041039 0.207119,-0.024902 0.03436,0.00807 0.06713,0.024261 0.09267,0.048625 0.02554,0.024364 0.04352,0.057118 0.04783,0.092152 0.0033,0.027044 -0.0015,0.054748 -0.01153,0.080065 -0.01007,0.025318 -0.02531,0.048356 -0.04292,0.069152 -0.03521,0.041592 -0.07959,0.074245 -0.119368,0.1114999 -0.07417,0.069472 -0.132474,0.1551098 -0.210682,0.2200029 -0.0391,0.032446 -0.08339,0.059567 -0.132183,0.073752 -0.04879,0.014186 -0.10241,0.01477 -0.149601,-0.00407 -0.05378,-0.021469 -0.09674,-0.068402 -0.113378,-0.1238652 -0.01664,-0.055464 -0.0066,-0.1182932 0.02647,-0.1658208 z"
       id="path1202"
       inkscape:original-d="m 14.264756,7.3481339 c -0.02923,-0.09683 0.270638,-0.250797 0.40556,-0.376592 0.134922,-0.125795 0.232013,0.07752 0.347623,0.115875 0.11561,0.03836 -0.11561,0.174076 -0.173811,0.260717 -0.0582,0.08664 -0.328046,0.193388 -0.492466,0.289686 -0.16442,0.0963 -0.05767,-0.19286 -0.08691,-0.289686 z"
       inkscape:path-effect="#path-effect1204" />
    <path
       style="fill:#ffffff;stroke-width:0.264583"
       d="m 16.475496,6.0336096 c 0.162617,0.2620481 0.193866,0.6013283 0.08185,0.8886711 -0.06066,0.1555943 -0.16053,0.2967122 -0.195639,0.4599791 -0.01755,0.081633 -0.01776,0.1687231 0.01201,0.2467347 0.01489,0.039006 0.03719,0.075343 0.06646,0.1051149 0.02927,0.029772 0.06558,0.052857 0.105475,0.065149 0.07395,0.022785 0.157,0.00665 0.222168,-0.035079 0.04608,-0.02951 0.08393,-0.070985 0.112352,-0.1177443 0.02842,-0.04676 0.04765,-0.098735 0.0602,-0.1519971 0.0251,-0.1065245 0.02378,-0.2171899 0.02623,-0.3266035 0.0019,-0.083785 0.0062,-0.1684224 0.0293,-0.2489821 0.0231,-0.08056 0.06672,-0.1576239 0.134398,-0.2070466 0.05346,-0.039037 0.11998,-0.058991 0.186176,-0.059076 0.0662,-8.49e-5 0.13188,0.019256 0.189195,0.052376 0.114628,0.066241 0.192438,0.1845868 0.232667,0.3107182 0.06403,0.2007562 0.04198,0.4227919 0.116931,0.6197312 0.02734,0.071835 0.06945,0.1411405 0.134009,0.1828452 0.03228,0.020852 0.06977,0.034203 0.108161,0.035824 0.0384,0.00162 0.07762,-0.00887 0.108621,-0.031581 0.03067,-0.022458 0.05231,-0.056018 0.06366,-0.092295 0.01135,-0.036277 0.01283,-0.075165 0.008,-0.1128659 -0.0097,-0.075401 -0.04367,-0.1451008 -0.07164,-0.2157886 -0.05431,-0.1372485 -0.08732,-0.2860394 -0.07016,-0.4326425 0.01495,-0.1277486 0.06707,-0.2482468 0.09065,-0.374687 0.01179,-0.06322 0.01635,-0.1284719 0.0053,-0.1918252 -0.01105,-0.063353 -0.03855,-0.1249113 -0.08426,-0.1701494 -0.04481,-0.044352 -0.105306,-0.07111 -0.167601,-0.080849 -0.06229,-0.00974 -0.126371,-0.00318 -0.187411,0.012615 -0.122079,0.031596 -0.231402,0.098726 -0.346571,0.1500851 -0.07259,0.032373 -0.149509,0.058915 -0.228977,0.060511 -0.03974,7.984e-4 -0.07979,-0.00477 -0.117085,-0.018497 -0.0373,-0.01373 -0.07177,-0.035781 -0.09827,-0.065401 -0.02988,-0.033395 -0.04885,-0.075378 -0.06069,-0.1185935 -0.01184,-0.043215 -0.01692,-0.08795 -0.0219,-0.132481 -0.005,-0.044531 -0.0099,-0.089271 -0.0215,-0.1325571 -0.01158,-0.043286 -0.03016,-0.085414 -0.05962,-0.119169 -0.03502,-0.040113 -0.08501,-0.066841 -0.137814,-0.073683 -0.05281,-0.00684 -0.107957,0.00626 -0.152042,0.036126 -0.04408,0.029864 -0.07671,0.076221 -0.08994,0.1277984 -0.01323,0.051578 -0.007,0.1079148 0.01731,0.1553128 z"
       id="path1338"
       inkscape:path-effect="#path-effect1340"
       inkscape:original-d="m 16.475496,6.0336096 c -0.121093,0.081587 0.05483,0.5927119 0.08185,0.8886711 0.02702,0.2959592 -0.0075,0.5849167 -0.01169,0.8769781 -0.0042,0.2920614 0.148377,-0.023122 0.222168,-0.035079 0.07379,-0.011957 0.132785,-0.3972989 0.198781,-0.5963449 0.066,-0.1990463 0.1094,-0.3037547 0.163703,-0.4560287 0.0543,-0.1522743 0.405623,0.2029439 0.608038,0.3040189 0.202415,0.1010751 0.07822,0.4134189 0.116931,0.6197312 0.03871,0.2063125 0.234125,0.1249905 0.350791,0.1870887 0.116666,0.062098 2.65e-4,-0.2803684 0,-0.4209494 -2.65e-4,-0.1405811 -0.04651,-0.2881638 -0.07016,-0.4326425 -0.02365,-0.1444789 0.0081,-0.4908433 0.01169,-0.7366616 0.0036,-0.2458185 -0.467457,0.054832 -0.701583,0.081851 -0.234125,0.027019 -0.295959,-0.015327 -0.444335,-0.023386 -0.148376,-0.00806 -0.10887,-0.3349358 -0.163703,-0.5028006 -0.05483,-0.1678649 -0.241391,0.163967 -0.362484,0.2455539 z" />
  </g>
</svg>
